<svg width="1785" height="112" viewBox="0 0 1785 112" fill="none" xmlns="http://www.w3.org/2000/svg">
<path d="M20 62.6287L21.1488 62.956L22.2976 63.2828L23.4463 63.6089L24.5951 63.9344L25.7439 64.2592L26.8927 64.5832L28.0415 64.9066L29.1903 65.2292L30.339 65.551L31.4878 65.8719L32.6366 66.1921L33.7854 66.5113L34.9342 66.8297L36.0829 67.1471L37.2317 67.4636L38.3805 67.7791L39.5293 68.0935L40.6781 68.407L41.8269 68.7193L42.9756 69.0306L44.1244 69.3408L45.2732 69.6498L46.422 69.9577L47.5708 70.2643L48.7196 70.5698L49.8683 70.8739L51.0171 71.1769L52.1659 71.4785L53.3147 71.7788L54.4635 72.0777L55.6122 72.3752L56.761 72.6714L57.9098 72.9661L59.0586 73.2594L60.2074 73.5512L61.3562 73.8414L62.5049 74.1302L63.6537 74.4174L64.8025 74.703L65.9513 74.987L67.1001 75.2694L68.2488 75.5501L69.3976 75.8292L70.5464 76.1065L71.6952 76.3822L72.844 76.6561L73.9928 76.9282L75.1415 77.1985L76.2903 77.467L77.4391 77.7337L78.5879 77.9985L79.7367 78.2614L80.8855 78.5224L82.0342 78.7815L83.183 79.0386L84.3318 79.2937L85.4806 79.5469L86.6294 79.798L87.7781 80.0471L88.9269 80.2941L90.0757 80.5391L91.2245 80.7819L92.3733 81.0226L93.5221 81.2612L94.6708 81.4976L95.8196 81.7318L96.9684 81.9638L98.1172 82.1936L99.266 82.4211L100.415 82.6464L101.564 82.8694L102.712 83.0901L103.861 83.3085L105.01 83.5245L106.159 83.7382L107.307 83.9495L108.456 84.1583L109.605 84.3648L110.754 84.5688L111.903 84.7704L113.051 84.9696L114.2 85.1662L115.349 85.3604L116.498 85.552L117.646 85.7411L118.795 85.9276L119.944 86.1116L121.093 86.293L122.242 86.4718L123.39 86.648L124.539 86.8216L125.688 86.9925L126.837 87.1607L127.986 87.3263L129.134 87.4892L130.283 87.6494L131.432 87.8069L132.581 87.9617L133.729 88.1137L134.878 88.263L136.027 88.4095L137.176 88.5532L138.325 88.6941L139.473 88.8323L140.622 88.9676L141.771 89.1001L142.92 89.2297L144.068 89.3565L145.217 89.4805L146.366 89.6016L147.515 89.7198L148.664 89.835L149.812 89.9474L150.961 90.0569L152.11 90.1635L153.259 90.2671L154.408 90.3679L155.556 90.4656L156.705 90.5604L157.854 90.6523L159.003 90.7411L160.151 90.827L161.3 90.9099L162.449 90.9898L163.598 91.0667L164.747 91.1407L165.895 91.2115L167.044 91.2794L168.193 91.3443L169.342 91.4061L170.49 91.4649L171.639 91.5206L172.788 91.5733L173.937 91.623L175.086 91.6696L176.234 91.7131L177.383 91.7535L178.532 91.791L179.681 91.8253L180.829 91.8566L181.978 91.8848L183.127 91.9099L184.276 91.9319L185.425 91.9509L186.573 91.9668L187.722 91.9796L188.871 91.9893L190.02 91.9959L191.169 91.9994L192.317 91.9999L193.466 91.9972L194.615 91.9915L195.764 91.9827L196.912 91.9708L198.061 91.9558L199.21 91.9378L200.359 91.9166L201.508 91.8924L202.656 91.8651L203.805 91.8347L204.954 91.8013L206.103 91.7648L207.251 91.7252L208.4 91.6826L209.549 91.6369L210.698 91.5881L211.847 91.5363L212.995 91.4814L214.144 91.4236L215.293 91.3626L216.442 91.2986L217.591 91.2317L218.739 91.1616L219.888 91.0886L221.037 91.0126L222.186 90.9336L223.334 90.8515L224.483 90.7665L225.632 90.6785L226.781 90.5875L227.93 90.4936L229.078 90.3967L230.227 90.2968L231.376 90.1941L232.525 90.0883L233.673 89.9797L234.822 89.8682L235.971 89.7537L237.12 89.6363L238.269 89.5161L239.417 89.393L240.566 89.2671L241.715 89.1382L242.864 89.0066L244.013 88.8721L245.161 88.7348L246.31 88.5947L247.459 88.4517L248.608 88.3061L249.756 88.1576L250.905 88.0064L252.054 87.8524L253.203 87.6957L254.352 87.5363L255.5 87.3742L256.649 87.2094L257.798 87.0419L258.947 86.8717L260.095 86.6989L261.244 86.5235L262.393 86.3455L263.542 86.1649L264.691 85.9816L265.839 85.7958L266.988 85.6075L268.137 85.4166L269.286 85.2232L270.435 85.0272L271.583 84.8289L272.732 84.628L273.881 84.4246L275.03 84.2189L276.178 84.0107L277.327 83.8001L278.476 83.5871L279.625 83.3718L280.774 83.1541L281.922 82.9341L283.071 82.7118L284.22 82.4872L285.369 82.2603L286.517 82.0311L287.666 81.7998L288.815 81.5662L289.964 81.3304L291.113 81.0925L292.261 80.8524L293.41 80.6102L294.559 80.3658L295.708 80.1194L296.856 79.8709L298.005 79.6204L299.154 79.3678L300.303 79.1133L301.452 78.8567L302.6 78.5982L303.749 78.3378L304.898 78.0754L306.047 77.8112L307.196 77.545L308.344 77.2771L309.493 77.0073L310.642 76.7357L311.791 76.4623L312.939 76.1872L314.088 75.9104L315.237 75.6318L316.386 75.3515L317.535 75.0696L318.683 74.7861L319.832 74.5009L320.981 74.2142L322.13 73.9259L323.278 73.6361L324.427 73.3447L325.576 73.0519L326.725 72.7576L327.874 72.4619L329.022 72.1647L330.171 71.8662L331.32 71.5663L332.469 71.2651L333.618 70.9625L334.766 70.6587L335.915 70.3536L337.064 70.0473L338.213 69.7398L339.361 69.4312L340.51 69.1213L341.659 68.8103L342.808 68.4983L343.957 68.1852L345.105 67.871L346.254 67.5558L347.403 67.2396L348.552 66.9225L349.7 66.6044L350.849 66.2854L351.998 65.9655L353.147 65.6448L354.296 65.3232L355.444 65.0009L356.593 64.6777L357.742 64.3539L358.891 64.0293L360.04 63.704L361.188 63.3781L362.337 63.0515L363.486 62.7243L364.635 62.3966L365.783 62.0683L366.932 61.7394L368.081 61.4101L369.23 61.0804L370.379 60.7502L371.527 60.4195L372.676 60.0885L373.825 59.7572L374.974 59.4255L376.122 59.0935L377.271 58.7613L378.42 58.4289L379.569 58.0962L380.718 57.7633L381.866 57.4303L383.015 57.0972L384.164 56.764L385.313 56.4307L386.462 56.0974L387.61 55.764L388.759 55.4307L389.908 55.0975L391.057 54.7643L392.205 54.4312L393.354 54.0983L394.503 53.7655L395.652 53.4329L396.801 53.1005L397.949 52.7684L399.098 52.4366L400.247 52.105L401.396 51.7738L402.544 51.443L403.693 51.1125L404.842 50.7825L405.991 50.4529L407.14 50.1238L408.288 49.7952L409.437 49.4671L410.586 49.1396L411.735 48.8126L412.883 48.4864L414.032 48.1607L415.181 47.8357L416.33 47.5114L417.479 47.1878L418.627 46.865L419.776 46.543L420.925 46.2218L422.074 45.9014L423.223 45.5819L424.371 45.2633L425.52 44.9455L426.669 44.6288L427.818 44.313L428.966 43.9983L430.115 43.6845L431.264 43.3718L432.413 43.0602L433.562 42.7497L434.71 42.4404L435.859 42.1322L437.008 41.8252L438.157 41.5194L439.305 41.2148L440.454 40.9115L441.603 40.6095L442.752 40.3089L443.901 40.0095L445.049 39.7116L446.198 39.415L447.347 39.1199L448.496 38.8262L449.645 38.534L450.793 38.2432L451.942 37.9541L453.091 37.6664L454.24 37.3803L455.388 37.0958L456.537 36.813L457.686 36.5318L458.835 36.2522L459.984 35.9743L461.132 35.6982L462.281 35.4238L463.43 35.1512L464.579 34.8803L465.727 34.6113L466.876 34.3441L468.025 34.0787L469.174 33.8153L470.323 33.5537L471.471 33.2941L472.62 33.0364L473.769 32.7807L474.918 32.5269L476.067 32.2752L477.215 32.0255L478.364 31.7779L479.513 31.5323L480.662 31.2889L481.81 31.0475L482.959 30.8083L484.108 30.5713L485.257 30.3364L486.406 30.1038L487.554 29.8733L488.703 29.6451L489.852 29.4192L491.001 29.1955L492.149 28.9742L493.298 28.7551L494.447 28.5384L495.596 28.324L496.745 28.1121L497.893 27.9025L499.042 27.6953L500.191 27.4905L501.34 27.2882L502.488 27.0884L503.637 26.891L504.786 26.6961L505.935 26.5038L507.084 26.3139L508.232 26.1266L509.381 25.9419L510.53 25.7597L511.679 25.5802L512.828 25.4032L513.976 25.2289L515.125 25.0572L516.274 24.8882L517.423 24.7218L518.571 24.5581L519.72 24.3971L520.869 24.2388L522.018 24.0833L523.167 23.9305L524.315 23.7804L525.464 23.6331L526.613 23.4885L527.762 23.3468L528.91 23.2078L530.059 23.0717L531.208 22.9384L532.357 22.8079L533.506 22.6803L534.654 22.5555L535.803 22.4336L536.952 22.3145L538.101 22.1984L539.25 22.0851L540.398 21.9748L541.547 21.8674L542.696 21.7629L543.845 21.6613L544.993 21.5627L546.142 21.467L547.291 21.3743L548.44 21.2846L549.589 21.1978L550.737 21.114L551.886 21.0333L553.035 20.9555L554.184 20.8807L555.332 20.8089L556.481 20.7402L557.63 20.6744L558.779 20.6117L559.928 20.5521L561.076 20.4954L562.225 20.4418L563.374 20.3913L564.523 20.3438L565.672 20.2994L566.82 20.258L567.969 20.2197L569.118 20.1845L570.267 20.1523L571.415 20.1232L572.564 20.0972L573.713 20.0742L574.862 20.0544L576.011 20.0376L577.159 20.0239L578.308 20.0133L579.457 20.0058L580.606 20.0013L581.754 20L582.903 20.0017L584.052 20.0066L585.201 20.0145L586.35 20.0255L587.498 20.0396L588.647 20.0567L589.796 20.0769L590.945 20.1003L592.094 20.1266L593.242 20.1561L594.391 20.1887L595.54 20.2243L596.689 20.263L597.837 20.3047L598.986 20.3495L600.135 20.3974L601.284 20.4483L602.433 20.5023L603.581 20.5593L604.73 20.6193L605.879 20.6824L607.028 20.7485L608.176 20.8177L609.325 20.8898L610.474 20.965L611.623 21.0431L612.772 21.1243L613.92 21.2084L615.069 21.2956L616.218 21.3857L617.367 21.4787L618.515 21.5748L619.664 21.6737L620.813 21.7757L621.962 21.8805L623.111 21.9883L624.259 22.099L625.408 22.2126L626.557 22.3291L627.706 22.4485L628.855 22.5708L630.003 22.6959L631.152 22.8239L632.301 22.9547L633.45 23.0884L634.598 23.2249L635.747 23.3642L636.896 23.5063L638.045 23.6512L639.194 23.7988L640.342 23.9493L641.491 24.1024L642.64 24.2583L643.789 24.4169L644.937 24.5783L646.086 24.7423L647.235 24.909L648.384 25.0784L649.533 25.2504L650.681 25.425L651.83 25.6023L652.979 25.7822L654.128 25.9647L655.277 26.1497L656.425 26.3373L657.574 26.5275L658.723 26.7202L659.872 26.9153L661.02 27.113L662.169 27.3132L663.318 27.5158L664.467 27.7209L665.616 27.9283L666.764 28.1382L667.913 28.3505L669.062 28.5652L670.211 28.7821L671.359 29.0015L672.508 29.2231L673.657 29.4471L674.806 29.6733L675.955 29.9018L677.103 30.1325L678.252 30.3654L679.401 30.6006L680.55 30.8379L681.699 31.0773L682.847 31.3189L683.996 31.5627L685.145 31.8085L686.294 32.0563L687.442 32.3063L688.591 32.5583L689.74 32.8122L690.889 33.0682L692.038 33.3262L693.186 33.586L694.335 33.8479L695.484 34.1115L696.633 34.3771L697.781 34.6445L698.93 34.9138L700.079 35.1849L701.228 35.4577L702.377 35.7323L703.525 36.0087L704.674 36.2868L705.823 36.5665L706.972 36.8479L708.12 37.131L709.269 37.4157L710.418 37.702L711.567 37.9898L712.716 38.2792L713.864 38.5701L715.013 38.8625L716.162 39.1564L717.311 39.4517L718.46 39.7484L719.608 40.0466L720.757 40.3461L721.906 40.6469L723.055 40.9491L724.203 41.2525L725.352 41.5572L726.501 41.8631L727.65 42.1703L728.799 42.4787L729.947 42.7882L731.096 43.0988L732.245 43.4105L733.394 43.7233L734.542 44.0372L735.691 44.3521L736.84 44.668L737.989 44.9849L739.138 45.3027L740.286 45.6215L741.435 45.9411L742.584 46.2616L743.733 46.5829L744.882 46.905L746.03 47.2279L747.179 47.5516L748.328 47.8759L749.477 48.201L750.625 48.5268L751.774 48.8531L752.923 49.1801L754.072 49.5077L755.221 49.8359L756.369 50.1645L757.518 50.4937L758.667 50.8234L759.816 51.1534L760.964 51.4839L762.113 51.8148L763.262 52.1461L764.411 52.4777L765.56 52.8095L766.708 53.1417L767.857 53.4741L769.006 53.8067L770.155 54.1395L771.304 54.4725L772.452 54.8056L773.601 55.1388L774.75 55.472L775.899 55.8054L777.047 56.1387L778.196 56.472L779.345 56.8053L780.494 57.1385L781.643 57.4716L782.791 57.8046L783.94 58.1374L785.089 58.4701L786.238 58.8025L787.386 59.1347L788.535 59.4666L789.684 59.7983L790.833 60.1296L791.982 60.4605L793.13 60.7911L794.279 61.1213L795.428 61.451L796.577 61.7802L797.726 62.109L798.874 62.4372L800.023 62.7649L801.172 63.092L802.321 63.4185L803.469 63.7444L804.618 64.0696L805.767 64.394L806.916 64.7178L808.065 65.0409L809.213 65.3631L810.362 65.6846L811.511 66.0052L812.66 66.325L813.808 66.6439L814.957 66.9618L816.106 67.2788L817.255 67.5949L818.404 67.91L819.552 68.224L820.701 68.537L821.85 68.849L822.999 69.1598L824.147 69.4695L825.296 69.778L826.445 70.0854L827.594 70.3916L828.743 70.6965L829.891 71.0001L831.04 71.3025L832.189 71.6036L833.338 71.9033L834.487 72.2016L835.635 72.4986L836.784 72.7941L837.933 73.0883L839.082 73.3809L840.23 73.6721L841.379 73.9617L842.528 74.2498L843.677 74.5364L844.826 74.8213L845.974 75.1047L847.123 75.3864L848.272 75.6664L849.421 75.9447L850.569 76.2214L851.718 76.4963L852.867 76.7695L854.016 77.0408L855.165 77.3104L856.313 77.5781L857.462 77.844L858.611 78.1081L859.76 78.3702L860.909 78.6304L862.057 78.8886L863.206 79.1449L864.355 79.3993L865.504 79.6516L866.652 79.9018L867.801 80.1501L868.95 80.3963L870.099 80.6403L871.248 80.8823L872.396 81.1221L873.545 81.3598L874.694 81.5953L875.843 81.8286L876.991 82.0597L878.14 82.2885L879.289 82.5151L880.438 82.7395L881.587 82.9615L882.735 83.1812L883.884 83.3986L885.033 83.6137L886.182 83.8263L887.331 84.0366L888.479 84.2445L889.628 84.45L890.777 84.653L891.926 84.8536L893.074 85.0517L894.223 85.2473L895.372 85.4404L896.521 85.631L897.67 85.819L898.818 86.0045L899.967 86.1874L901.116 86.3677L902.265 86.5454L903.413 86.7205L904.562 86.893L905.711 87.0628L906.86 87.2299L908.009 87.3944L909.157 87.5562L910.306 87.7153L911.455 87.8716L912.604 88.0253L913.753 88.1761L914.901 88.3242L916.05 88.4696L917.199 88.6122L918.348 88.7519L919.496 88.8889L920.645 89.023L921.794 89.1544L922.943 89.2828L924.092 89.4084L925.24 89.5312L926.389 89.6511L927.538 89.7681L928.687 89.8821L929.835 89.9933L930.984 90.1016L932.133 90.207L933.282 90.3094L934.431 90.4089L935.579 90.5054L936.728 90.599L937.877 90.6896L939.026 90.7772L940.174 90.8618L941.323 90.9435L942.472 91.0222L943.621 91.0978L944.77 91.1705L945.918 91.2401L947.067 91.3068L948.216 91.3703L949.365 91.4309L950.514 91.4884L951.662 91.5429L952.811 91.5943L953.96 91.6427L955.109 91.688L956.257 91.7303L957.406 91.7695L958.555 91.8056L959.704 91.8387L960.853 91.8687L962.001 91.8956L963.15 91.9194L964.299 91.9402L965.448 91.9579L966.596 91.9724L967.745 91.9839L968.894 91.9924L970.043 91.9977L971.192 92L972.34 91.9991L973.489 91.9952L974.638 91.9882L975.787 91.9781L976.936 91.965L978.084 91.9487L979.233 91.9294L980.382 91.9069L981.531 91.8814L982.679 91.8528L983.828 91.8212L984.977 91.7865L986.126 91.7487L987.275 91.7079L988.423 91.6639L989.572 91.6169L990.721 91.5669L991.87 91.5139L993.018 91.4577L994.167 91.3986L995.316 91.3364L996.465 91.2711L997.614 91.2029L998.762 91.1317L999.911 91.0574L1001.06 90.9801L1002.21 90.8998L1003.36 90.8165L1004.51 90.7303L1005.66 90.641L1006.8 90.5488L1007.95 90.4536L1009.1 90.3555L1010.25 90.2545L1011.4 90.1504L1012.55 90.0435L1013.7 89.9337L1014.85 89.8209L1015.99 89.7053L1017.14 89.5867L1018.29 89.4653L1019.44 89.341L1020.59 89.2138L1021.74 89.0838L1022.89 88.951L1024.04 88.8153L1025.18 88.6768L1026.33 88.5355L1027.48 88.3915L1028.63 88.2446L1029.78 88.095L1030.93 87.9427L1032.08 87.7875L1033.23 87.6297L1034.37 87.4692L1035.52 87.3059L1036.67 87.14L1037.82 86.9714L1038.97 86.8002L1040.12 86.6263L1041.27 86.4498L1042.42 86.2707L1043.56 86.089L1044.71 85.9047L1045.86 85.7178L1047.01 85.5284L1048.16 85.3364L1049.31 85.142L1050.46 84.945L1051.61 84.7456L1052.76 84.5437L1053.9 84.3393L1055.05 84.1326L1056.2 83.9234L1057.35 83.7118L1058.5 83.4978L1059.65 83.2815L1060.8 83.0629L1061.95 82.8419L1063.09 82.6186L1064.24 82.3931L1065.39 82.1652L1066.54 81.9352L1067.69 81.7029L1068.84 81.4684L1069.99 81.2317L1071.14 80.9929L1072.28 80.7519L1073.43 80.5088L1074.58 80.2636L1075.73 80.0163L1076.88 79.767L1078.03 79.5156L1079.18 79.2622L1080.33 79.0068L1081.47 78.7494L1082.62 78.4901L1083.77 78.2289L1084.92 77.9657L1086.07 77.7007L1087.22 77.4338L1088.37 77.1651L1089.52 76.8945L1090.66 76.6222L1091.81 76.3481L1092.96 76.0723L1094.11 75.7947L1095.26 75.5154L1096.41 75.2345L1097.56 74.9519L1098.71 74.6676L1099.86 74.3819L1101 74.0945L1102.15 73.8055L1103.3 73.5151L1104.45 73.2231L1105.6 72.9296L1106.75 72.6347L1107.9 72.3384L1109.05 72.0407L1110.19 71.7416L1111.34 71.4411L1112.49 71.1394L1113.64 70.8363L1114.79 70.532L1115.94 70.2264L1117.09 69.9196L1118.24 69.6116L1119.38 69.3024L1120.53 68.9921L1121.68 68.6807L1122.83 68.3682L1123.98 68.0546L1125.13 67.74L1126.28 67.4244L1127.43 67.1078L1128.57 66.7903L1129.72 66.4718L1130.87 66.1524L1132.02 65.8322L1133.17 65.5111L1134.32 65.1892L1135.47 64.8665L1136.62 64.5431L1137.77 64.2189L1138.91 63.894L1140.06 63.5685L1141.21 63.2423L1142.36 62.9155L1143.51 62.588L1144.66 62.26L1145.81 61.9315L1146.96 61.6025L1148.1 61.273L1149.25 60.943L1150.4 60.6126L1151.55 60.2819L1152.7 59.9507L1153.85 59.6192L1155 59.2874L1156.15 58.9554L1157.29 58.623L1158.44 58.2905L1159.59 57.9577L1160.74 57.6248L1161.89 57.2917L1163.04 56.9586L1164.19 56.6253L1165.34 56.292L1166.48 55.9587L1167.63 55.6254L1168.78 55.2921L1169.93 54.9589L1171.08 54.6257L1172.23 54.2927L1173.38 53.9598L1174.53 53.6271L1175.67 53.2946L1176.82 52.9623L1177.97 52.6303L1179.12 52.2986L1180.27 51.9672L1181.42 51.6361L1182.57 51.3054L1183.72 50.9752L1184.87 50.6453L1186.01 50.3159L1187.16 49.987L1188.31 49.6586L1189.46 49.3308L1190.61 49.0035L1191.76 48.6768L1192.91 48.3508L1194.06 48.0254L1195.2 47.7007L1196.35 47.3767L1197.5 47.0535L1198.65 46.7309L1199.8 46.4093L1200.95 46.0884L1202.1 45.7684L1203.25 45.4492L1204.39 45.131L1205.54 44.8137L1206.69 44.4973L1207.84 44.182L1208.99 43.8676L1210.14 43.5543L1211.29 43.2421L1212.44 42.9309L1213.58 42.6209L1214.73 42.312L1215.88 42.0043L1217.03 41.6978L1218.18 41.3925L1219.33 41.0885L1220.48 40.7857L1221.63 40.4843L1222.77 40.1842L1223.92 39.8854L1225.07 39.588L1226.22 39.2921L1227.37 38.9975L1228.52 38.7045L1229.67 38.4128L1230.82 38.1228L1231.97 37.8342L1233.11 37.5472L1234.26 37.2618L1235.41 36.9779L1236.56 36.6958L1237.71 36.4153L1238.86 36.1364L1240.01 35.8593L1241.16 35.5838L1242.3 35.3102L1243.45 35.0383L1244.6 34.7682L1245.75 34.4999L1246.9 34.2335L1248.05 33.9689L1249.2 33.7062L1250.35 33.4455L1251.49 33.1866L1252.64 32.9298L1253.79 32.6748L1254.94 32.4219L1256.09 32.1711L1257.24 31.9223L1258.39 31.6755L1259.54 31.4308L1260.68 31.1882L1261.83 30.9478L1262.98 30.7095L1264.13 30.4733L1265.28 30.2394L1266.43 30.0076L1267.58 29.7781L1268.73 29.5509L1269.87 29.3259L1271.02 29.1032L1272.17 28.8828L1273.32 28.6647L1274.47 28.449L1275.62 28.2356L1276.77 28.0246L1277.92 27.816L1279.07 27.6098L1280.21 27.4061L1281.36 27.2048L1282.51 27.006L1283.66 26.8096L1284.81 26.6158L1285.96 26.4245L1287.11 26.2357L1288.26 26.0495L1289.4 25.8658L1290.55 25.6847L1291.7 25.5063L1292.85 25.3304L1294 25.1572L1295.15 24.9866L1296.3 24.8186L1297.45 24.6534L1298.59 24.4908L1299.74 24.331L1300.89 24.1738L1302.04 24.0194L1303.19 23.8677L1304.34 23.7188L1305.49 23.5726L1306.64 23.4292L1307.78 23.2886L1308.93 23.1509L1310.08 23.0159L1311.23 22.8838L1312.38 22.7545L1313.53 22.628L1314.68 22.5044L1315.83 22.3837L1316.98 22.2659L1318.12 22.1509L1319.27 22.0389L1320.42 21.9298L1321.57 21.8235L1322.72 21.7203L1323.87 21.6199L1325.02 21.5225L1326.17 21.4281L1327.31 21.3366L1328.46 21.2481L1329.61 21.1626L1330.76 21.0801L1331.91 21.0006L1333.06 20.924L1334.21 20.8505L1335.36 20.7799L1336.5 20.7125L1337.65 20.648L1338.8 20.5865L1339.95 20.5281L1341.1 20.4727L1342.25 20.4204L1343.4 20.3712L1344.55 20.325L1345.69 20.2818L1346.84 20.2417L1347.99 20.2047L1349.14 20.1707L1350.29 20.1398L1351.44 20.112L1352.59 20.0873L1353.74 20.0656L1354.88 20.0471L1356.03 20.0316L1357.18 20.0191L1358.33 20.0098L1359.48 20.0036L1360.63 20.0004L1361.78 20.0004L1362.93 20.0034L1364.08 20.0095L1365.22 20.0187L1366.37 20.0309L1367.52 20.0463L1368.67 20.0647L1369.82 20.0863L1370.97 20.1109L1372.12 20.1385L1373.27 20.1693L1374.41 20.2031L1375.56 20.24L1376.71 20.28L1377.86 20.323L1379.01 20.3691L1380.16 20.4182L1381.31 20.4704L1382.46 20.5256L1383.6 20.5839L1384.75 20.6452L1385.9 20.7095L1387.05 20.7769L1388.2 20.8473L1389.35 20.9207L1390.5 20.9971L1391.65 21.0765L1392.79 21.1589L1393.94 21.2443L1395.09 21.3327L1396.24 21.424L1397.39 21.5183L1398.54 21.6156L1399.69 21.7158L1400.84 21.8189L1401.98 21.925L1403.13 22.034L1404.28 22.1459L1405.43 22.2607L1406.58 22.3785L1407.73 22.499L1408.88 22.6225L1410.03 22.7488L1411.18 22.878L1412.32 23.01L1413.47 23.1449L1414.62 23.2825L1415.77 23.423L1416.92 23.5662L1418.07 23.7123L1419.22 23.8611L1420.37 24.0126L1421.51 24.1669L1422.66 24.324L1423.81 24.4837L1424.96 24.6462L1426.11 24.8113L1427.26 24.9791L1428.41 25.1496L1429.56 25.3227L1430.7 25.4984L1431.85 25.6768L1433 25.8578L1434.15 26.0413L1435.3 26.2275L1436.45 26.4161L1437.6 26.6073L1438.75 26.801L1439.89 26.9973L1441.04 27.196L1442.19 27.3972L1443.34 27.6008L1444.49 27.8069L1445.64 28.0154L1446.79 28.2262L1447.94 28.4395L1449.08 28.6551L1450.23 28.8731L1451.38 29.0934L1452.53 29.316L1453.68 29.5409L1454.83 29.7681L1455.98 29.9975L1457.13 30.2291L1458.28 30.463L1459.42 30.699L1460.57 30.9372L1461.72 31.1776L1462.87 31.4201L1464.02 31.6647L1465.17 31.9113L1466.32 32.1601L1467.47 32.4109L1468.61 32.6637L1469.76 32.9185L1470.91 33.1753L1472.06 33.434L1473.21 33.6947L1474.36 33.9573L1475.51 34.2218L1476.66 34.4881L1477.8 34.7563L1478.95 35.0263L1480.1 35.2982L1481.25 35.5718L1482.4 35.8471L1483.55 36.1242L1484.7 36.4029L1485.85 36.6834L1486.99 36.9655L1488.14 37.2493L1489.29 37.5346L1490.44 37.8215L1491.59 38.11L1492.74 38.4L1493.89 38.6916L1495.04 38.9846L1496.19 39.2791L1497.33 39.575L1498.48 39.8723L1499.63 40.171L1500.78 40.471L1501.93 40.7724L1503.08 41.0751L1504.23 41.3791L1505.38 41.6843L1506.52 41.9908L1507.67 42.2984L1508.82 42.6073L1509.97 42.9172L1511.12 43.2284L1512.27 43.5405L1513.42 43.8538L1514.57 44.1681L1515.71 44.4834L1516.86 44.7997L1518.01 45.117L1519.16 45.4352L1520.31 45.7543L1521.46 46.0743L1522.61 46.3951L1523.76 46.7168L1524.9 47.0392L1526.05 47.3624L1527.2 47.6864L1528.35 48.0111L1529.5 48.3364L1530.65 48.6625L1531.8 48.9891L1532.95 49.3163L1534.09 49.6442L1535.24 49.9725L1536.39 50.3014L1537.54 50.6308L1538.69 50.9606L1539.84 51.2909L1540.99 51.6215L1542.14 51.9526L1543.29 52.284L1544.43 52.6157L1545.58 52.9477L1546.73 53.2799L1547.88 53.6125L1549.03 53.9451L1550.18 54.278L1551.33 54.611L1552.48 54.9442L1553.62 55.2774L1554.77 55.6107L1555.92 55.944L1557.07 56.2773L1558.22 56.6107L1559.37 56.9439L1560.52 57.2771L1561.67 57.6101L1562.81 57.9431L1563.96 58.2758L1565.11 58.6084L1566.26 58.9407L1567.41 59.2728L1568.56 59.6046L1569.71 59.9361L1570.86 60.2673L1572 60.5981L1573.15 60.9285L1574.3 61.2585L1575.45 61.588L1576.6 61.9171L1577.75 62.2456L1578.9 62.5736L1580.05 62.901L1581.19 63.2279L1582.34 63.5541L1583.49 63.8797L1584.64 64.2046L1585.79 64.5288L1586.94 64.8523L1588.09 65.175L1589.24 65.497L1590.39 65.8181L1591.53 66.1383L1592.68 66.4577L1593.83 66.7763L1594.98 67.0938L1596.13 67.4105L1597.28 67.7261L1598.43 68.0408L1599.58 68.3544L1600.72 68.6669L1601.87 68.9784L1603.02 69.2888L1604.17 69.598L1605.32 69.906L1606.47 70.2129L1607.62 70.5185L1608.77 70.8229L1609.91 71.126L1611.06 71.4279L1612.21 71.7284L1613.36 72.0275L1614.51 72.3253L1615.66 72.6217L1616.81 72.9167L1617.96 73.2102L1619.1 73.5022L1620.25 73.7928L1621.4 74.0818L1622.55 74.3692L1623.7 74.6551L1624.85 74.9394L1626 75.2221L1627.15 75.5031L1628.29 75.7824L1629.44 76.06L1630.59 76.336L1631.74 76.6102L1632.89 76.8826L1634.04 77.1532L1635.19 77.422L1636.34 77.689L1637.49 77.9541L1638.63 78.2173L1639.78 78.4787L1640.93 78.7381L1642.08 78.9955L1643.23 79.251L1644.38 79.5044L1645.53 79.7559L1646.68 80.0054L1647.82 80.2527L1648.97 80.498L1650.12 80.7412L1651.27 80.9823L1652.42 81.2212L1653.57 81.458L1654.72 81.6926L1655.87 81.925L1657.01 82.1551L1658.16 82.3831L1659.31 82.6087L1660.46 82.8321L1661.61 83.0532L1662.76 83.2719L1663.91 83.4884L1665.06 83.7024L1666.2 83.9141L1667.35 84.1234L1668.5 84.3303L1669.65 84.5348L1670.8 84.7367L1671.95 84.9363L1673.1 85.1334L1674.25 85.3279L1675.4 85.52L1676.54 85.7095L1677.69 85.8965L1678.84 86.0809L1679.99 86.2627L1681.14 86.4419L1682.29 86.6186L1683.44 86.7926L1684.59 86.964L1685.73 87.1327L1686.88 87.2987L1688.03 87.462L1689.18 87.6227L1690.33 87.7806L1691.48 87.9359L1692.63 88.0883L1693.78 88.2381L1694.92 88.3851L1696.07 88.5293L1697.22 88.6707L1698.37 88.8093L1699.52 88.945L1700.67 89.078L1701.82 89.2082L1702.97 89.3354L1704.11 89.4598L1705.26 89.5814L1706.41 89.7001L1707.56 89.8159L1708.71 89.9288L1709.86 90.0388L1711.01 90.1458L1712.16 90.2499L1713.3 90.3511L1714.45 90.4494L1715.6 90.5447L1716.75 90.637L1717.9 90.7264L1719.05 90.8128L1720.2 90.8962L1721.35 90.9766L1722.5 91.054L1723.64 91.1284L1724.79 91.1998L1725.94 91.2682L1727.09 91.3336L1728.24 91.3959L1729.39 91.4552L1730.54 91.5114L1731.69 91.5647L1732.83 91.6148L1733.98 91.6619L1735.13 91.706L1736.28 91.747L1737.43 91.7849L1738.58 91.8197L1739.73 91.8515L1740.88 91.8802L1742.02 91.9059L1743.17 91.9284L1744.32 91.9479L1745.47 91.9643L1746.62 91.9776L1747.77 91.9879L1748.92 91.995L1750.07 91.999L1751.21 92L1752.36 91.9979L1753.51 91.9927L1754.66 91.9844L1755.81 91.973L1756.96 91.9586L1758.11 91.941L1759.26 91.9204L1760.4 91.8967L1761.55 91.8699L1762.7 91.8401L1763.85 91.8071L1765 91.7711" stroke="#FADC4D" stroke-width="40" stroke-miterlimit="10" stroke-linecap="round" stroke-linejoin="round"/>
</svg>
