<svg width="194" height="157" viewBox="0 0 194 157" fill="none" xmlns="http://www.w3.org/2000/svg">
<path d="M23.5899 59.7321L30.2416 61.7657L48.877 118.792C49.7518 121.468 51.8748 123.507 54.5048 124.311C55.0228 124.469 55.5639 124.58 56.1156 124.636C59.4717 124.985 62.7185 123.332 64.407 120.41L110.036 41.461L180.524 63.0115C185.039 64.3919 189.82 61.8524 191.202 57.3352C192.582 52.8201 190.041 48.0396 185.524 46.6585L108.536 23.1209C104.731 21.9577 100.624 23.5755 98.6328 27.0194L59.1842 95.2776L45.1163 52.2313C44.2523 49.5879 42.1533 47.5272 39.4897 46.7128L28.5892 43.3802C24.073 41.9995 19.2939 44.5396 17.9129 49.0569C16.5336 53.5723 19.0749 58.3517 23.5899 59.7321Z" fill="white"/>
<path d="M96.215 119.939C94.9875 123.954 97.3579 127.908 101.579 129.198C104.43 130.07 107.196 128.953 109.806 127.211L125.792 115.705L132.61 134.183C133.915 137.469 135.679 139.624 138.844 140.591C142.861 141.819 147.107 140.001 148.495 135.462C149.14 133.351 148.875 131.192 147.726 128.529L138.55 107.947L157.184 96.0939C158.937 94.8977 160.4 93.4978 161.078 91.2795C162.305 87.2645 159.936 83.3082 155.713 82.017C152.861 81.1452 150.097 82.2635 147.484 84.0079L132.56 94.6807L126.369 77.5523C125.062 74.2646 123.301 72.1078 120.135 71.1399C116.121 69.9127 111.872 71.7343 110.485 76.2739C109.84 78.3826 110.104 80.5441 111.251 83.2007L119.8 102.441L100.106 115.122C98.2543 116.289 96.8932 117.72 96.215 119.939Z" fill="white"/>
</svg>
