<svg width="1920" height="170" viewBox="0 0 1920 170" fill="none" xmlns="http://www.w3.org/2000/svg">
    <g filter="url(#filter0_d_8_6)">
        <path d="M0 135.178L40 123.178C80 111.178 160 87.1782 240 77.7782C320 68.5782 400 73.7783 480 79.1783C560 84.5783 640 89.7783 720 89.5783C800 89.1783 880 83.1783 960 78.1783C1040 73.1783 1120 69.1783 1200 74.5783C1280 79.7783 1360 94.5782 1440 108.778C1520 123.178 1600 137.178 1680 134.578C1760 131.778 1840 112.578 1880 102.778L1920 93.1783V389.178H1880C1840 389.178 1760 389.178 1680 389.178C1600 389.178 1520 389.178 1440 389.178C1360 389.178 1280 389.178 1200 389.178C1120 389.178 1040 389.178 960 389.178C880 389.178 800 389.178 720 389.178C640 389.178 560 389.178 480 389.178C400 389.178 320 389.178 240 389.178C160 389.178 80 389.178 40 389.178H0V135.178Z" fill="#EEEEEE"/>
    </g>
    <defs>
        <filter id="filter0_d_8_6" x="-72" y="0" width="2064" height="461.178" filterUnits="userSpaceOnUse" color-interpolation-filters="sRGB">
            <feFlood flood-opacity="0" result="BackgroundImageFix"/>
            <feColorMatrix in="SourceAlpha" type="matrix" values="0 0 0 0 0 0 0 0 0 0 0 0 0 0 0 0 0 0 127 0" result="hardAlpha"/>
                <feOffset/>
                <feGaussianBlur stdDeviation="36"/>
                <feComposite in2="hardAlpha" operator="out"/>
                <feColorMatrix type="matrix" values="0 0 0 0 0 0 0 0 0 0 0 0 0 0 0 0 0 0 0.11 0"/>
            <feBlend mode="normal" in2="BackgroundImageFix" result="effect1_dropShadow_8_6"/>
            <feBlend mode="normal" in="SourceGraphic" in2="effect1_dropShadow_8_6" result="shape"/>
        </filter>
    </defs>
</svg>
