<svg width="239" height="239" viewBox="0 0 239 239" fill="none" xmlns="http://www.w3.org/2000/svg">
<g clip-path="url(#clip0_11_50)">
<path d="M132.614 196.012C131.138 196.283 129.616 196.161 128.202 195.659L63.1872 172.323C61.6542 171.772 60.3101 170.795 59.3126 169.507C58.315 168.219 57.7053 166.673 57.555 165.051L45.6527 97.55C45.3847 96.0643 45.5139 94.5341 46.0275 93.1143C46.541 91.6946 47.4206 90.4358 48.5772 89.4654L101.69 45.3003C102.842 44.3336 104.228 43.6872 105.709 43.426C107.19 43.1648 108.714 43.2981 110.127 43.8125L175.142 67.1486C176.561 67.665 177.818 68.547 178.786 69.7055C179.754 70.8639 180.399 72.2576 180.655 73.7455L192.557 141.247C192.825 142.732 192.696 144.263 192.183 145.682C191.669 147.102 190.789 148.361 189.633 149.331L136.52 193.496C135.475 194.679 134.123 195.549 132.614 196.012ZM73.6269 157.519L129.415 177.871L174.879 139.666L164.583 81.2774L108.795 60.9255L63.3314 99.1308L73.6269 157.519Z" fill="white"/>
<path d="M148.48 137.97C146.242 138.364 143.939 137.854 142.077 136.55C140.216 135.247 138.949 133.258 138.554 131.02L133.406 101.826C133.012 99.5878 133.522 97.2849 134.826 95.4235C136.129 93.5622 138.118 92.2948 140.356 91.9002C142.594 91.5056 144.897 92.0161 146.758 93.3195C148.62 94.6228 149.887 96.6122 150.282 98.85L155.429 128.044C155.824 130.282 155.313 132.585 154.01 134.446C152.707 136.308 150.717 137.575 148.48 137.97Z" fill="white"/>
<path d="M125.741 157.03C124.264 157.301 122.743 157.179 121.328 156.677L93.4415 146.543C92.3775 146.163 91.3992 145.575 90.5632 144.815C89.7272 144.054 89.0498 143.136 88.5702 142.113C88.0906 141.09 87.8181 139.981 87.7685 138.852C87.719 137.723 87.8932 136.596 88.2813 135.534C88.6703 134.476 89.2644 133.505 90.0294 132.677C90.7945 131.849 91.7155 131.18 92.7396 130.708C93.7638 130.236 94.8709 129.972 95.9976 129.929C97.1243 129.886 98.2483 130.066 99.3053 130.459L127.192 140.592C128.29 140.966 129.301 141.559 130.163 142.336C131.025 143.112 131.721 144.055 132.207 145.108C132.694 146.161 132.962 147.302 132.994 148.462C133.027 149.622 132.824 150.776 132.397 151.855C131.828 153.218 130.916 154.411 129.749 155.318C128.583 156.225 127.202 156.815 125.741 157.03Z" fill="white"/>
<path d="M92.706 117.702C90.84 118.045 88.9132 117.758 87.2276 116.888C85.5421 116.017 84.1931 114.612 83.3922 112.892C82.5914 111.172 82.384 109.235 82.8026 107.385C83.2211 105.534 84.242 103.875 85.705 102.668L108.444 83.6072C109.297 82.8274 110.298 82.2281 111.389 81.8454C112.479 81.4627 113.636 81.3045 114.789 81.3804C115.942 81.4562 117.067 81.7645 118.098 82.2867C119.129 82.8089 120.043 83.5343 120.787 84.4191C121.53 85.3039 122.086 86.3299 122.423 87.4354C122.759 88.5408 122.869 89.7029 122.744 90.8517C122.62 92.0006 122.264 93.1124 121.699 94.1202C121.134 95.1281 120.371 96.0113 119.456 96.7165L96.7165 115.777C95.5895 116.786 94.1985 117.454 92.706 117.702Z" fill="white"/>
<path d="M204.268 158.322C202.78 158.568 201.252 158.417 199.841 157.884L181.255 151.157C179.78 150.622 178.48 149.692 177.498 148.469C176.515 147.247 175.887 145.777 175.682 144.222L163.78 76.721C163.512 75.2353 163.641 73.7051 164.154 72.2854C164.668 70.8656 165.548 69.6068 166.704 68.6364L181.868 55.9575C182.727 55.2272 183.722 54.6737 184.796 54.3286C185.869 53.9835 187 53.8536 188.123 53.9464C189.247 54.0393 190.341 54.353 191.344 54.8696C192.346 55.3861 193.236 56.0955 193.964 56.9568C194.691 57.8215 195.241 58.8215 195.58 59.8994C195.92 60.9773 196.043 62.1118 195.942 63.2374C195.841 64.363 195.519 65.4576 194.993 66.4581C194.468 67.4585 193.75 68.3452 192.88 69.0669L181.458 78.3018L191.754 136.69L205.705 141.799C207.493 142.434 209.019 143.644 210.045 145.239C211.072 146.835 211.539 148.726 211.375 150.616C211.211 152.506 210.424 154.288 209.137 155.683C207.851 157.077 206.139 158.005 204.268 158.322Z" fill="white"/>
<path d="M52.3905 185.102C50.5246 185.444 48.5977 185.158 46.9121 184.287C45.2266 183.417 43.8776 182.011 43.0768 180.292C42.2759 178.572 42.0685 176.635 42.4871 174.784C42.9056 172.934 43.9265 171.275 45.3895 170.067L56.7516 160.495L46.4561 102.106L32.5053 96.9973C31.4413 96.6165 30.4631 96.029 29.627 95.2686C28.791 94.5082 28.1137 93.5899 27.634 92.5667C27.1544 91.5434 26.8819 90.4353 26.8323 89.3063C26.7828 88.1773 26.957 87.0496 27.3451 85.9882C27.7341 84.9299 28.3282 83.9589 29.0933 83.1307C29.8583 82.3025 30.7793 81.6334 31.8034 81.1619C32.8276 80.6903 33.9347 80.4256 35.0614 80.3828C36.1881 80.3399 37.3121 80.5199 38.3691 80.9124L56.9553 87.6401C58.43 88.175 59.7295 89.1045 60.7122 90.3273C61.6949 91.5501 62.323 93.0192 62.528 94.5745L74.4303 162.076C74.6984 163.561 74.5691 165.092 74.0555 166.511C73.542 167.931 72.6624 169.19 71.5058 170.16L56.3415 182.839C55.2527 183.936 53.8875 184.718 52.3905 185.102Z" fill="white"/>
</g>
<defs>
<clipPath id="clip0_11_50">
<rect width="205.627" height="205.627" fill="white" transform="translate(-0.00012207 36) rotate(-10)"/>
</clipPath>
</defs>
</svg>
