<svg width="162" height="163" viewBox="0 0 162 163" fill="none" xmlns="http://www.w3.org/2000/svg">
<path d="M80.7298 81.5883L77.8113 96.6023C86.1035 98.2142 94.132 92.7982 95.7437 84.5067L80.7298 81.5883ZM80.7298 81.5883L65.7158 78.6699C64.1041 86.9614 69.5191 94.9905 77.8113 96.6023L80.7298 81.5883ZM80.7298 81.5883L83.6483 66.574C75.356 64.9621 67.3276 70.3777 65.7158 78.6699L80.7298 81.5883ZM80.7298 81.5883L95.7437 84.5067C97.3556 76.2145 91.9405 68.1858 83.6483 66.574L80.7298 81.5883ZM79.2705 89.0953L79.3456 89.1099L82.264 74.0959L82.189 74.0813L79.2705 89.0953ZM97.8353 106.948C79.269 119.471 60.4511 127.169 45.2656 129.725C29.3319 132.407 20.5256 129.091 17.3293 124.352L4.64923 132.905C13.2619 145.674 30.7586 147.677 47.8047 144.808C65.5987 141.812 86.4381 133.085 106.388 119.628L97.8353 106.948ZM17.3293 124.352C14.1329 119.613 14.357 110.206 22.813 96.4376C30.8721 83.3149 45.0578 68.7507 63.6241 56.2277L55.0713 43.5476C35.121 57.0043 19.223 73.0566 9.77975 88.4329C0.733269 103.163 -3.96347 120.136 4.64923 132.905L17.3293 124.352ZM63.6241 56.2277C82.1907 43.7046 101.008 36.0075 116.194 33.451C132.127 30.7685 140.934 34.0848 144.131 38.8237L156.811 30.2708C148.198 17.502 130.701 15.4985 113.655 18.3683C95.861 21.3638 75.0216 30.0909 55.0713 43.5476L63.6241 56.2277ZM144.131 38.8237C147.327 43.5625 147.102 52.9697 138.647 66.7385C130.587 79.8609 116.402 94.4252 97.8353 106.948L106.388 119.628C126.339 106.171 142.236 90.1192 151.68 74.7428C160.726 60.0129 165.423 43.0397 156.811 30.2708L144.131 38.8237ZM106.09 64.4822C118.613 83.0483 126.31 101.866 128.867 117.052C131.549 132.986 128.233 141.792 123.494 144.988L132.047 157.669C144.816 149.056 146.819 131.56 143.949 114.513C140.954 96.7186 132.227 75.8797 118.77 55.9293L106.09 64.4822ZM123.494 144.988C118.755 148.185 109.348 147.961 95.5791 139.505C82.4564 131.446 67.8929 117.26 55.3696 98.6938L42.6895 107.247C56.1461 127.197 72.1988 143.095 87.575 152.538C102.305 161.584 119.278 166.281 132.047 157.669L123.494 144.988ZM55.3696 98.6938C42.8464 80.1275 35.1495 61.3097 32.593 46.1237C29.9106 30.19 33.2268 21.3837 37.9656 18.1873L29.4128 5.50719C16.644 14.1199 14.6405 31.6167 17.5103 48.6629C20.5058 66.4572 29.2329 87.296 42.6895 107.247L55.3696 98.6938ZM37.9656 18.1873C42.7044 14.991 52.1118 15.215 65.8804 23.671C79.0025 31.7301 93.5667 45.9159 106.09 64.4822L118.77 55.9293C105.314 35.9791 89.2608 20.0809 73.8847 10.6377C59.1548 1.59137 42.1816 -3.10552 29.4128 5.50719L37.9656 18.1873Z" fill="white"/>
</svg>
