<svg width="97" height="146" viewBox="0 0 97 146" fill="none" xmlns="http://www.w3.org/2000/svg">
<path fill-rule="evenodd" clip-rule="evenodd" d="M5.80507 0.692456C9.11631 -0.31235 12.6889 1.02656 14.5215 3.95931L42.916 49.4001L81.8926 25.0448C84.2189 23.5912 87.1437 23.4916 89.5615 24.7834C91.9798 26.0748 93.5213 28.5605 93.604 31.3006L96.8077 137.614C96.9118 141.072 94.6841 144.17 91.3729 145.175C88.0617 146.18 84.489 144.841 82.6567 141.909L54.2622 96.4679L15.2856 120.823C12.9595 122.277 10.0343 122.376 7.61626 121.084C5.19825 119.793 3.65663 117.307 3.57402 114.567L0.370194 8.25397C0.266399 4.79643 2.49388 1.69732 5.80507 0.692456ZM18.4828 100.773L52.6455 79.4257C56.2333 77.1838 60.9577 78.2727 63.198 81.858L80.6444 109.778L78.6958 45.0952L44.5328 66.4426C40.945 68.6845 36.2207 67.5955 33.9802 64.0101L16.5335 36.0894L18.4828 100.773Z" fill="white"/>
</svg>
