<svg width="247" height="245" viewBox="0 0 247 245" fill="none" xmlns="http://www.w3.org/2000/svg">
<path fill-rule="evenodd" clip-rule="evenodd" d="M24.9533 122.209C24.9533 68.3015 68.6538 24.601 122.561 24.601C129.3 24.601 134.762 19.1383 134.762 12.4C134.762 5.66161 129.3 0.198975 122.561 0.198975C55.177 0.198975 0.55127 54.8247 0.55127 122.209C0.55127 189.593 55.177 244.219 122.561 244.219C156.249 244.219 186.769 230.549 208.836 208.483C213.6 203.718 213.6 195.993 208.836 191.229C204.07 186.463 196.346 186.463 191.581 191.229C173.903 208.906 149.518 219.817 122.561 219.817C68.6538 219.817 24.9533 176.117 24.9533 122.209ZM134.762 49.003C134.762 42.2646 129.3 36.802 122.561 36.802C115.823 36.802 110.36 42.2646 110.36 49.003V122.209C110.36 125.445 111.646 128.549 113.934 130.836L150.537 167.439C155.301 172.204 163.027 172.204 167.792 167.439C172.556 162.675 172.556 154.949 167.792 150.185L134.762 117.155V49.003ZM241.5 160.854C238.898 168.866 230.294 173.249 222.283 170.647C214.273 168.043 209.889 159.439 212.491 151.429C215.094 143.418 223.698 139.034 231.709 141.637C239.719 144.24 244.104 152.843 241.5 160.854ZM233.404 120.095C241.724 118.777 247.4 110.965 246.082 102.646C244.764 94.3261 236.952 88.6501 228.633 89.9678C220.313 91.2854 214.637 99.0978 215.955 107.418C217.273 115.736 225.085 121.412 233.404 120.095ZM223.737 48.7006C228.688 55.515 227.178 65.0527 220.363 70.0036C213.549 74.9545 204.012 73.4439 199.06 66.6295C194.109 59.8151 195.62 50.2775 202.434 45.3266C209.248 40.3756 218.787 41.8862 223.737 48.7006ZM186.003 31.2925C189.827 23.7875 186.842 14.6036 179.337 10.7796C171.833 6.95564 162.649 9.93964 158.825 17.4446C155.001 24.9497 157.984 34.1335 165.491 37.9575C172.995 41.7814 182.179 38.7974 186.003 31.2925Z" fill="white"/>
</svg>
