<svg width="176" height="255" viewBox="0 0 176 255" fill="none" xmlns="http://www.w3.org/2000/svg">
<path d="M175.651 87.8253C175.651 39.3983 136.252 0 87.8253 0C39.3988 0 0 39.3983 0 87.8253C0 118.126 14.7836 133.731 27.8268 147.499C38.6598 158.933 48.2019 169.013 50.4788 186.983H42.4959V203.981H50.9952V218.146C50.9952 238.454 67.5174 254.976 87.8253 254.976C108.133 254.976 124.655 238.454 124.655 218.146V203.981H133.154V186.983H125.171C127.448 169.013 136.99 158.934 147.823 147.499C160.867 133.731 175.651 118.126 175.651 87.8253ZM107.657 218.146C107.657 229.081 98.7604 237.977 87.8253 237.977C76.8902 237.977 67.994 229.081 67.994 218.146V203.981H107.657V218.146ZM108.072 186.983H96.3242V119.676L122.568 93.4323L110.548 81.4126L87.8253 104.136L65.1011 81.413L53.0813 93.4328L79.326 119.676V186.983H67.5781C65.1061 162.142 51.9305 148.226 40.1672 135.808C27.7351 122.685 16.9982 111.352 16.9982 87.8248C16.9982 48.7711 48.7712 16.9982 87.8248 16.9982C126.879 16.9982 158.651 48.7711 158.651 87.8248C158.651 111.352 147.915 122.685 135.483 135.808C123.72 148.226 110.545 162.142 108.072 186.983Z" fill="white"/>
</svg>
